<?xml version="1.0" encoding="UTF-8" standalone="no"?><!DOCTYPE svg PUBLIC "-//W3C//DTD SVG 1.1//EN" "http://www.w3.org/Graphics/SVG/1.1/DTD/svg11.dtd"><svg width="100%" height="100%" viewBox="0 0 836 836" version="1.1" xmlns="http://www.w3.org/2000/svg" xmlns:xlink="http://www.w3.org/1999/xlink" xml:space="preserve" xmlns:serif="http://www.serif.com/" style="fill-rule:evenodd;clip-rule:evenodd;stroke-linejoin:round;stroke-miterlimit:2;"><rect id="cancel" x="1.381" y="0.345" width="833.333" height="833.333" style="fill:none;"/><path d="M224.364,502.954c-11.229,-25.378 -18.786,-51.979 -20.87,-79.99c-3.732,-50.17 0.074,-101.819 25.352,-149.974c33.524,-64.426 84.855,-113.082 149.111,-133.329c59.71,-18.816 125.653,-19.58 185.5,11.613c54.68,29.676 91.826,76.019 110.032,130.765c16.689,50.185 18.654,105.877 -5.059,157.745l-0.098,-0.037c8.59,-25.585 12.494,-51.714 9.987,-77.016c-2.551,-25.742 -11.373,-50.028 -24.438,-71.883c-23.969,-40.095 -64.102,-68.232 -113.172,-79.622c-43.311,-10.821 -85.64,-0.397 -121.154,20.902c-31.442,18.857 -51.659,51.64 -61.265,89.977c-5.864,23.762 0.035,46.608 7.266,68.062c4.636,13.753 14.032,24.571 24.797,34.449l74.23,-35.033l-54.166,268.75l-266.667,-117.334l80.614,-38.045Z"/></svg>