<?xml version="1.0" encoding="iso-8859-1"?>
<!-- Generator: Adobe Illustrator 18.0.0, SVG Export Plug-In . SVG Version: 6.00 Build 0)  -->
<!DOCTYPE svg PUBLIC "-//W3C//DTD SVG 1.1//EN" "http://www.w3.org/Graphics/SVG/1.1/DTD/svg11.dtd">
<svg width="100%" height="100%" viewBox="10 0 40 40" version="1.1" id="Capa_1" xmlns="http://www.w3.org/2000/svg" xmlns:xlink="http://www.w3.org/1999/xlink">

	<path d="M38.428,22.961c-0.919,0-2.047,0.12-3.358,0.358c-1.83-1.942-3.74-4.778-5.088-7.562c1.337-5.629,0.668-6.426,0.373-6.802
		c-0.314-0.4-0.757-1.049-1.261-1.049c-0.211,0-0.787,0.096-1.016,0.172c-0.576,0.192-0.886,0.636-1.134,1.215
		c-0.707,1.653,0.263,4.471,1.261,6.643c-0.853,3.393-2.284,7.454-3.788,10.75c-3.79,1.736-5.803,3.441-5.985,5.068
		c-0.066,0.592,0.074,1.461,1.115,2.242c0.285,0.213,0.619,0.326,0.967,0.326h0c0.875,0,1.759-0.67,2.782-2.107
		c0.746-1.048,1.547-2.477,2.383-4.251c2.678-1.171,5.991-2.229,8.828-2.822c1.58,1.517,2.995,2.285,4.211,2.285
		c0.896,0,1.664-0.412,2.22-1.191c0.579-0.811,0.711-1.537,0.39-2.16C40.943,23.327,39.994,22.961,38.428,22.961z M20.536,32.634
		c-0.468-0.359-0.441-0.601-0.431-0.692c0.062-0.556,0.933-1.543,3.07-2.744C21.555,32.19,20.685,32.587,20.536,32.634z
		 M28.736,9.712c0.043-0.014,1.045,1.101,0.096,3.216C27.406,11.469,28.638,9.745,28.736,9.712z M26.669,25.738
		c1.015-2.419,1.959-5.09,2.674-7.564c1.123,2.018,2.472,3.976,3.822,5.544C31.031,24.219,28.759,24.926,26.669,25.738z
		 M39.57,25.259C39.262,25.69,38.594,25.7,38.36,25.7c-0.533,0-0.732-0.317-1.547-0.944c0.672-0.086,1.306-0.108,1.811-0.108
		c0.889,0,1.052,0.131,1.175,0.197C39.777,24.916,39.719,25.05,39.57,25.259z"/>
</svg>
