<?xml version="1.0" encoding="UTF-8" standalone="no"?>
<!DOCTYPE svg PUBLIC "-//W3C//DTD SVG 1.1//EN" "http://www.w3.org/Graphics/SVG/1.1/DTD/svg11.dtd">
<svg width="100%" height="100%" viewBox="0 0 401 400" version="1.1" xmlns="http://www.w3.org/2000/svg" xmlns:xlink="http://www.w3.org/1999/xlink" xml:space="preserve" xmlns:serif="http://www.serif.com/" style="fill-rule:evenodd;clip-rule:evenodd;stroke-linejoin:round;stroke-miterlimit:2;">
    <g transform="matrix(1,0,0,1,-2576,-3745)">
        <g id="day" transform="matrix(0.891552,0,0,0.853643,1243.96,547.994)">
            <rect x="1494.53" y="3745.13" width="448.656" height="468.58" style="fill:none;"/>
            <g transform="matrix(0.744053,0,0,0.777095,430.743,932.947)">
                <circle cx="1731.21" cy="3920.34" r="92.852"/>
            </g>
            <g transform="matrix(0.705272,0,0,0.736592,-440.082,1073.57)">
                <path d="M3012.79,4062.65C3025.38,4067.83 3038.97,4071.05 3053.2,4071.93L3040.15,4128.62C3026.14,4127.04 3012.61,4123.88 2999.74,4119.34L3012.79,4062.65ZM3129.32,4052.35L3152.09,4105.88C3140.14,4112.66 3127.36,4118.14 3113.94,4122.14L3091.17,4068.6C3104.89,4065.28 3117.74,4059.72 3129.32,4052.35ZM2952.89,4011.74C2960.21,4023.59 2969.43,4034.16 2980.12,4043.01L2936.26,4081.18C2926.07,4071.83 2916.92,4061.34 2909.03,4049.92L2952.89,4011.74ZM3179.42,3991.79L3229.3,4021.71C3223.5,4034.39 3216.31,4046.3 3207.92,4057.24L3158.05,4027.32C3166.99,4016.81 3174.25,4004.82 3179.42,3991.79ZM2934.32,3935.37C2934.09,3938.54 2933.96,3941.76 2933.96,3945C2933.96,3955.94 2935.35,3966.55 2937.95,3976.67L2880,3981.78C2877.6,3969.9 2876.34,3957.6 2876.34,3945C2876.34,3943.49 2876.35,3941.99 2876.39,3940.48L2934.32,3935.37ZM3184.33,3913.33L3242.28,3908.22C3244.68,3920.1 3245.94,3932.4 3245.94,3945C3245.94,3946.51 3245.92,3948.01 3245.89,3949.52L3187.95,3954.63C3188.19,3951.46 3188.31,3948.24 3188.31,3945C3188.31,3934.06 3186.93,3923.45 3184.33,3913.33ZM2964.23,3862.68C2955.29,3873.2 2948.03,3885.18 2942.86,3898.22L2892.98,3868.29C2898.78,3855.61 2905.97,3843.7 2914.36,3832.76L2964.23,3862.68ZM3142.15,3846.99L3186.01,3808.82C3196.21,3818.17 3205.36,3828.66 3213.25,3840.08L3169.39,3878.26C3162.06,3866.41 3152.85,3855.85 3142.15,3846.99ZM3031.1,3821.4C3017.39,3824.72 3004.53,3830.28 2992.96,3837.65L2970.19,3784.12C2982.14,3777.34 2994.92,3771.86 3008.34,3767.86L3031.1,3821.4ZM3069.08,3818.07L3082.13,3761.38C3096.13,3762.96 3109.66,3766.12 3122.54,3770.66L3109.49,3827.35C3096.9,3822.17 3083.3,3818.95 3069.08,3818.07Z"/>
            </g>
        </g>
    </g>
</svg>
