<?xml version="1.0" encoding="UTF-8" standalone="no"?><!DOCTYPE svg PUBLIC "-//W3C//DTD SVG 1.1//EN" "http://www.w3.org/Graphics/SVG/1.1/DTD/svg11.dtd"><svg width="100%" height="100%" viewBox="0 0 201 201" version="1.1" xmlns="http://www.w3.org/2000/svg" xmlns:xlink="http://www.w3.org/1999/xlink" xml:space="preserve" xmlns:serif="http://www.serif.com/" style="fill-rule:evenodd;clip-rule:evenodd;stroke-linejoin:round;stroke-miterlimit:2;"><rect id="flat" x="0.288" y="0.08" width="200" height="200" style="fill:none;"/><path d="M78.449,162.999l0,-162.919l7.005,0l0,87.864c0.934,-1.735 2.168,-3.236 3.702,-4.503c1.535,-1.268 3.236,-2.502 5.104,-3.703c1.868,-1.201 4.07,-2.135 6.605,-2.802c2.535,-0.667 5.204,-1.001 8.006,-1.001c3.736,0 7.038,0.567 9.907,1.701c2.869,1.134 5.404,2.669 7.605,4.604c2.202,1.934 3.903,4.37 5.104,7.305c1.201,2.935 1.802,5.871 1.802,8.806c0,5.471 -1.602,11.242 -4.804,17.313c-3.202,6.071 -8.54,12.242 -16.012,18.514c-0.533,0.667 -1.601,1.634 -3.202,2.902c-1.601,1.267 -3.336,2.768 -5.204,4.503c-1.868,1.735 -3.903,3.402 -6.104,5.004c-2.202,1.601 -4.203,3.169 -6.005,4.703c-1.801,1.534 -3.269,2.835 -4.403,3.903c-1.134,1.067 -1.834,1.668 -2.101,1.801c-2.802,2.402 -4.637,4.003 -5.504,4.804c-0.868,0.8 -1.368,1.201 -1.501,1.201Zm7.005,-10.808c1.734,-2.002 4.003,-4.437 6.805,-7.306c2.802,-2.868 5.871,-6.238 9.206,-10.107c4.27,-4.403 7.206,-8.506 8.807,-12.309c1.601,-3.803 2.402,-7.038 2.402,-9.707c0,-3.469 -1.101,-6.305 -3.303,-8.506c-2.202,-2.202 -4.837,-3.303 -7.906,-3.303c-2.535,0 -4.77,0.567 -6.705,1.702c-1.934,1.134 -3.636,2.435 -5.103,3.902c-1.735,1.602 -3.136,3.336 -4.203,5.204l0,40.43Z" style="fill-rule:nonzero;"/></svg>