<?xml version="1.0" encoding="UTF-8" standalone="no"?>
<!DOCTYPE svg PUBLIC "-//W3C//DTD SVG 1.1//EN" "http://www.w3.org/Graphics/SVG/1.1/DTD/svg11.dtd">
<svg width="100%" height="100%" viewBox="0 0 2452 1426" version="1.1" xmlns="http://www.w3.org/2000/svg" xmlns:xlink="http://www.w3.org/1999/xlink" xml:space="preserve" xmlns:serif="http://www.serif.com/">
    <g id="header" transform="matrix(1,0,0,1,-24041,-1937)">
        <g transform="matrix(0.83138,0,0,1.04257,24065.9,1165.22)">
            <g id="titling" transform="matrix(9.84557,-5.93289e-17,7.44001e-17,7.85115,-10511.2,-2146.06)">
                <g transform="matrix(71.3155,0,0,71.3155,1073.3,478.829)">
                    <path d="M0.039,-0.059C0.042,-0.034 0.055,-0.022 0.105,-0.005C0.129,0.003 0.184,0.011 0.258,0.01C0.287,0.009 0.315,0.007 0.334,0.004C0.399,-0.006 0.422,-0.016 0.435,-0.033C0.446,-0.047 0.45,-0.062 0.447,-0.076C0.444,-0.092 0.438,-0.102 0.431,-0.106C0.403,-0.12 0.397,-0.125 0.39,-0.138C0.387,-0.142 0.385,-0.147 0.384,-0.152L0.384,-0.154L0.379,-0.184C0.361,-0.294 0.376,-0.321 0.436,-0.32C0.444,-0.32 0.453,-0.321 0.497,-0.323C0.556,-0.326 0.573,-0.318 0.577,-0.286L0.577,-0.285L0.579,-0.243C0.581,-0.161 0.576,-0.143 0.552,-0.123C0.527,-0.102 0.523,-0.099 0.52,-0.094C0.495,-0.066 0.501,-0.027 0.543,-0.01C0.556,-0.005 0.572,-0.001 0.619,0.005C0.636,0.008 0.659,0.01 0.693,0.01C0.709,0.01 0.728,0.009 0.748,0.008C0.756,0.008 0.763,0.008 0.769,0.007C0.861,0.001 0.884,-0.005 0.9,-0.023C0.913,-0.037 0.918,-0.054 0.916,-0.069C0.913,-0.084 0.907,-0.094 0.899,-0.1C0.844,-0.137 0.845,-0.136 0.843,-0.251L0.84,-0.389L0.84,-0.434C0.844,-0.616 0.84,-0.614 0.879,-0.636C0.901,-0.648 0.908,-0.654 0.912,-0.663C0.93,-0.708 0.92,-0.727 0.856,-0.751C0.853,-0.752 0.849,-0.754 0.845,-0.754L0.843,-0.755L0.764,-0.762L0.738,-0.764L0.734,-0.765C0.727,-0.767 0.72,-0.765 0.713,-0.765C0.704,-0.765 0.696,-0.766 0.688,-0.765C0.593,-0.761 0.559,-0.753 0.539,-0.742C0.503,-0.722 0.497,-0.68 0.522,-0.659C0.529,-0.653 0.536,-0.648 0.543,-0.643C0.57,-0.624 0.57,-0.623 0.575,-0.57L0.578,-0.536L0.579,-0.528C0.583,-0.475 0.577,-0.468 0.514,-0.463C0.505,-0.463 0.496,-0.462 0.486,-0.462C0.371,-0.462 0.362,-0.471 0.382,-0.572L0.391,-0.618C0.394,-0.624 0.4,-0.631 0.415,-0.641L0.444,-0.66L0.445,-0.661C0.45,-0.668 0.453,-0.685 0.45,-0.704C0.445,-0.731 0.425,-0.745 0.372,-0.754L0.331,-0.761C0.304,-0.764 0.272,-0.766 0.232,-0.765C0.178,-0.764 0.15,-0.761 0.128,-0.757C0.09,-0.748 0.076,-0.742 0.061,-0.731C0.028,-0.705 0.028,-0.672 0.049,-0.658C0.056,-0.653 0.065,-0.648 0.075,-0.644C0.121,-0.624 0.124,-0.607 0.123,-0.389C0.121,-0.164 0.114,-0.141 0.107,-0.137C0.046,-0.105 0.035,-0.088 0.039,-0.059Z" />
                </g>
                <g transform="matrix(71.3155,0,0,71.3155,1135.12,478.829)">
                    <path d="M0.036,-0.23C0.042,-0.18 0.06,-0.141 0.103,-0.09C0.114,-0.077 0.127,-0.065 0.142,-0.053C0.205,-0.006 0.256,0.012 0.336,0.015C0.358,0.016 0.381,0.014 0.403,0.01C0.461,0 0.506,-0.018 0.54,-0.041C0.594,-0.077 0.627,-0.117 0.651,-0.169C0.672,-0.218 0.682,-0.263 0.68,-0.303C0.677,-0.373 0.65,-0.431 0.601,-0.479C0.569,-0.51 0.524,-0.536 0.467,-0.551C0.429,-0.562 0.388,-0.565 0.335,-0.561C0.316,-0.559 0.3,-0.555 0.283,-0.551C0.222,-0.536 0.187,-0.518 0.148,-0.489C0.114,-0.462 0.09,-0.434 0.071,-0.399C0.056,-0.373 0.046,-0.347 0.041,-0.319C0.034,-0.289 0.033,-0.257 0.036,-0.23ZM0.3,-0.268C0.291,-0.314 0.29,-0.338 0.293,-0.361C0.294,-0.375 0.297,-0.388 0.302,-0.4C0.309,-0.421 0.336,-0.429 0.356,-0.417C0.372,-0.407 0.381,-0.392 0.397,-0.347C0.402,-0.333 0.409,-0.306 0.417,-0.254L0.42,-0.226L0.423,-0.204C0.425,-0.19 0.424,-0.174 0.422,-0.156C0.417,-0.12 0.385,-0.105 0.361,-0.119C0.342,-0.131 0.332,-0.148 0.31,-0.221C0.307,-0.233 0.303,-0.248 0.3,-0.268ZM0.123,-0.72C0.123,-0.704 0.132,-0.686 0.166,-0.652C0.224,-0.595 0.244,-0.595 0.302,-0.653C0.359,-0.711 0.359,-0.729 0.301,-0.787C0.234,-0.854 0.2,-0.851 0.129,-0.739C0.125,-0.734 0.123,-0.727 0.123,-0.72ZM0.38,-0.722C0.379,-0.706 0.387,-0.688 0.422,-0.653C0.466,-0.609 0.491,-0.602 0.512,-0.616C0.599,-0.67 0.611,-0.715 0.595,-0.739C0.524,-0.851 0.49,-0.854 0.424,-0.787C0.388,-0.752 0.38,-0.736 0.38,-0.722Z" />
                </g>
                <g transform="matrix(71.3155,0,0,71.3155,1180.11,478.829)">
                    <path d="M0.036,-0.624C0.041,-0.609 0.05,-0.599 0.062,-0.594C0.13,-0.567 0.133,-0.554 0.128,-0.344C0.123,-0.149 0.115,-0.12 0.1,-0.113C0.089,-0.109 0.079,-0.104 0.069,-0.098C0.048,-0.086 0.046,-0.049 0.072,-0.026C0.084,-0.013 0.1,-0.007 0.146,0L0.195,0.008L0.198,0.008C0.207,0.009 0.216,0.009 0.225,0.01C0.311,0.011 0.36,0.004 0.385,-0.004C0.409,-0.012 0.42,-0.02 0.429,-0.03C0.454,-0.056 0.448,-0.082 0.437,-0.087C0.4,-0.106 0.393,-0.115 0.39,-0.143L0.386,-0.18L0.386,-0.186L0.384,-0.221L0.382,-0.289L0.378,-0.413C0.377,-0.447 0.377,-0.472 0.378,-0.492L0.382,-0.661L0.383,-0.69C0.384,-0.762 0.378,-0.769 0.317,-0.764L0.267,-0.76C0.254,-0.759 0.241,-0.757 0.229,-0.754C0.104,-0.725 0.06,-0.698 0.044,-0.67C0.034,-0.653 0.032,-0.637 0.036,-0.624Z" />
                </g>
                <g transform="matrix(71.3155,0,0,71.3155,1208.41,478.829)">
                    <path d="M0.035,-0.448C0.033,-0.43 0.04,-0.418 0.061,-0.406C0.093,-0.384 0.1,-0.366 0.097,-0.26C0.093,-0.141 0.089,-0.124 0.08,-0.119C0.061,-0.107 0.052,-0.099 0.046,-0.087C0.02,-0.043 0.038,-0.007 0.085,0C0.101,0.003 0.116,0.004 0.132,0.005L0.195,0.008L0.225,0.01C0.244,0.01 0.263,0.01 0.281,0.008C0.368,0.001 0.399,-0.018 0.408,-0.049C0.417,-0.082 0.41,-0.097 0.38,-0.113C0.345,-0.131 0.349,-0.131 0.351,-0.29L0.353,-0.437L0.353,-0.447C0.362,-0.56 0.361,-0.563 0.267,-0.55C0.246,-0.547 0.231,-0.544 0.192,-0.534C0.164,-0.527 0.146,-0.522 0.128,-0.514C0.053,-0.488 0.037,-0.474 0.035,-0.448ZM0.036,-0.659C0.042,-0.606 0.104,-0.568 0.224,-0.594C0.293,-0.61 0.328,-0.633 0.34,-0.659C0.361,-0.703 0.333,-0.752 0.257,-0.761C0.234,-0.764 0.21,-0.764 0.178,-0.759C0.16,-0.757 0.143,-0.753 0.126,-0.746C0.111,-0.74 0.099,-0.735 0.088,-0.73C0.043,-0.705 0.032,-0.688 0.036,-0.659Z" />
                </g>
                <g transform="matrix(71.3155,0,0,71.3155,1234.29,478.829)">
                    <path d="M0.374,-0.477L0.374,-0.517L0.375,-0.577L0.377,-0.658L0.377,-0.717C0.376,-0.759 0.363,-0.767 0.317,-0.763L0.285,-0.761L0.275,-0.76C0.232,-0.755 0.19,-0.744 0.156,-0.732C0.091,-0.707 0.063,-0.688 0.05,-0.672C0.023,-0.636 0.03,-0.607 0.069,-0.593C0.102,-0.583 0.136,-0.695 0.111,-0.198C0.11,-0.172 0.105,-0.143 0.094,-0.111L0.082,-0.069L0.081,-0.065C0.075,-0.037 0.094,-0.013 0.118,-0.014C0.131,-0.014 0.143,-0.017 0.165,-0.031C0.169,-0.033 0.172,-0.035 0.176,-0.037C0.208,-0.064 0.2,-0.063 0.22,-0.05C0.298,-0.002 0.318,0.006 0.383,0.014C0.406,0.016 0.428,0.016 0.452,0.014C0.526,0.008 0.588,-0.021 0.646,-0.072C0.688,-0.109 0.719,-0.157 0.739,-0.22C0.749,-0.249 0.754,-0.273 0.756,-0.298C0.759,-0.347 0.756,-0.394 0.746,-0.423C0.721,-0.51 0.654,-0.563 0.557,-0.563C0.544,-0.563 0.53,-0.562 0.515,-0.56C0.466,-0.553 0.443,-0.532 0.39,-0.491L0.374,-0.477ZM0.388,-0.122C0.377,-0.15 0.376,-0.16 0.375,-0.277L0.375,-0.291L0.377,-0.34C0.377,-0.351 0.38,-0.362 0.386,-0.372C0.398,-0.389 0.417,-0.403 0.437,-0.391C0.472,-0.371 0.492,-0.331 0.492,-0.253C0.492,-0.189 0.474,-0.145 0.454,-0.126C0.425,-0.102 0.4,-0.094 0.388,-0.122Z" />
                </g>
                <g transform="matrix(71.3155,0,0,71.3155,1284.77,478.829)">
                    <path d="M0.036,-0.484C0.035,-0.476 0.035,-0.469 0.038,-0.461C0.044,-0.446 0.05,-0.438 0.056,-0.436C0.081,-0.426 0.087,-0.421 0.095,-0.411C0.099,-0.406 0.102,-0.4 0.104,-0.395C0.106,-0.388 0.107,-0.386 0.106,-0.384C0.105,-0.352 0.104,-0.32 0.104,-0.289C0.104,-0.047 0.151,0.023 0.306,0.014C0.339,0.012 0.369,0.002 0.408,-0.024C0.427,-0.035 0.434,-0.041 0.439,-0.047L0.457,-0.064C0.47,-0.07 0.483,-0.06 0.486,-0.03L0.488,0.001C0.496,0.012 0.515,0.018 0.601,0.01C0.616,0.008 0.631,0.006 0.646,0.002L0.677,-0.006L0.695,-0.011C0.702,-0.013 0.708,-0.015 0.715,-0.017C0.757,-0.034 0.771,-0.044 0.782,-0.062C0.798,-0.084 0.79,-0.111 0.761,-0.125L0.73,-0.142L0.728,-0.143C0.722,-0.15 0.72,-0.161 0.724,-0.226C0.726,-0.244 0.726,-0.267 0.726,-0.341L0.726,-0.435L0.727,-0.477L0.727,-0.484C0.73,-0.537 0.723,-0.548 0.676,-0.551C0.669,-0.552 0.663,-0.552 0.657,-0.552L0.624,-0.55L0.579,-0.548C0.512,-0.544 0.474,-0.534 0.457,-0.525C0.436,-0.512 0.427,-0.502 0.424,-0.491C0.418,-0.472 0.423,-0.458 0.432,-0.452C0.468,-0.426 0.477,-0.413 0.479,-0.383L0.482,-0.364L0.483,-0.338C0.49,-0.184 0.476,-0.148 0.437,-0.134C0.392,-0.118 0.355,-0.145 0.353,-0.204L0.352,-0.233L0.352,-0.249C0.351,-0.373 0.353,-0.433 0.357,-0.48C0.363,-0.557 0.358,-0.56 0.202,-0.542C0.15,-0.536 0.118,-0.531 0.105,-0.527C0.053,-0.513 0.04,-0.503 0.036,-0.484Z" />
                </g>
            </g>
            <g id="swoosh-shadow" transform="matrix(1,0,0,1,-15.109,38.2406)">
                <g transform="matrix(1.20282,0,0,0.959164,-9216.36,-4729.53)">
                    <path d="M9078.97,6371.13C9120.96,6338.86 9168.7,6292.56 9187.62,6270.72C9195.43,6261.8 9209,6260.89 9217.92,6268.7C9226.84,6276.5 9227.75,6290.08 9219.94,6298.99C9197.25,6324.66 9136.44,6381.16 9087.89,6415.23C9090.38,6467.39 9072.02,6534.65 9042.31,6586.47C9006.42,6649.06 8952.02,6684.13 8903.86,6669.22C8842.23,6645.51 8829.01,6588.19 8851.58,6525.64C8876.66,6456.16 8943.88,6383.83 8986.51,6373.54C8993.34,6371.4 9000.63,6375.2 9002.77,6382.03C9003.18,6383.35 9003.38,6384.68 9003.31,6386C9010.48,6375.53 9020.24,6365.34 9029.55,6359.42C9051.11,6345.72 9070.11,6349.14 9078.97,6371.13ZM8996.71,6397.24C8995.95,6397.66 8995.14,6398.01 8994.28,6398.28C8984.35,6402.7 8974.75,6413.19 8963.76,6425.62C8943.59,6448.43 8922.92,6480.39 8909.79,6513.38C8893.34,6554.71 8883.65,6598.88 8923.76,6610.69C8935.06,6614.73 8946.2,6608.96 8957.34,6600.45C8977.52,6585.04 8996.86,6560.17 9011.76,6531.5C9027.05,6502.08 9038.67,6469.25 9042.91,6439.75C9021.2,6446.49 9004.32,6442.82 8997.33,6433.52C8992.24,6426.8 8989.98,6416.57 8993.78,6404.44C8994.5,6402.14 8995.48,6399.72 8996.71,6397.24Z"/>
                </g>
                <g transform="matrix(1.20282,0,0,0.959164,-9159.95,-4762.35)">
                    <path d="M9337.81,6234.94C9351.59,6225.22 9364.88,6215.23 9377.79,6204.66C9399.73,6186.71 9420.59,6167.74 9441.96,6148.46C9449.27,6141.14 9461.15,6141.14 9468.46,6148.46C9475.77,6155.77 9475.77,6167.65 9468.46,6174.96C9468.46,6174.96 9366.82,6280.2 9366.82,6280.2C9358.17,6287.07 9352.49,6292.97 9345.52,6298.02C9343.78,6299.29 9341.98,6300.52 9340.06,6301.68C9335.35,6330.95 9324.67,6363.29 9309.19,6393.58C9270.93,6468.45 9205.59,6522.4 9154.44,6502.61C9125.1,6489.22 9109.75,6462.12 9108.49,6427.64C9106.49,6372.86 9140.13,6299.71 9158.71,6274.94C9165.45,6266.28 9180.56,6252.14 9196.04,6241.51C9208.08,6233.24 9220.09,6226.85 9228.91,6225.86C9235.97,6224.68 9242.65,6229.46 9243.83,6236.52C9245.01,6243.58 9240.23,6250.26 9233.17,6251.44C9226.28,6252.98 9217.46,6260.87 9209.01,6269.13C9199.86,6278.06 9192.07,6288.36 9188.46,6294.77C9178.76,6311.2 9165.43,6350.17 9160.58,6387.68C9157,6415.28 9154.48,6443.57 9176.16,6451.93C9208.55,6467.21 9244,6420.68 9271.33,6373.08C9282.17,6354.21 9291.11,6334.14 9297.16,6315.04C9254.74,6318.3 9242.11,6289.14 9244.9,6259.15C9248.45,6220.94 9282.97,6183.32 9319.76,6209.66C9328.12,6215.09 9334.08,6223.81 9337.81,6234.94ZM9305.69,6259.07C9305.17,6251.55 9303.25,6245.47 9298.18,6242.03C9293.56,6238.93 9290.6,6244.22 9288.84,6248.66C9287.34,6252.46 9287.85,6256.82 9288.24,6260.85C9288.46,6263.09 9290.45,6267.03 9292,6265.77C9292.76,6265.15 9293.37,6261.52 9293.55,6262.98C9293.94,6266.16 9300.35,6261.59 9304.53,6259.95L9305.69,6259.07Z"/>
                </g>
                <g transform="matrix(1.04853,-0.00226041,0.00280274,0.826727,-7841.28,-3850.8)">
                    <path d="M8901.06,6962.25C8901,6969.15 8896.19,6975.32 8889.24,6976.78C8874.65,6981.81 8870.54,6971.34 8868.3,6963.47C8866.56,6957.35 8880.26,6932.28 8887.64,6922.81L9006.31,6799.82L9274.54,6548.01C9409.97,6428.24 9556.17,6315.93 9710.95,6217.1C9865.53,6118.42 10028.5,6033.25 10194.2,5962.09C10203.8,5957.87 10214.9,5962.26 10219.1,5971.9C10223.2,5981.53 10218.9,5992.79 10209.4,5997.01C10047.3,6071.11 9889.57,6160.74 9738.03,6259.95C9586.48,6359.17 9441.1,6468.06 9307.49,6586.13L9036.95,6832.04C9036.95,6832.04 8914.45,6950.22 8914.45,6950.22C8911.53,6952.49 8904.81,6958.72 8901.06,6962.25Z"/>
                </g>
                <g transform="matrix(1.29688,0,0,0.959164,-10023.3,-4722.31)">
                    <path d="M8526.74,6635.52C8532.65,6638.3 8535.46,6645.66 8533.05,6652.16C8530.61,6659.93 8518.53,6665.49 8507.69,6655.43C8501,6649.21 8496.29,6637.12 8502.14,6623.77C8502.14,6623.77 8534.51,6571.12 8534.51,6571.12C8554.55,6541.61 8585.91,6503.11 8622.39,6476.76C8648.59,6457.85 8677.41,6445.74 8704.62,6443.77C8728.06,6442.25 8740.52,6451.39 8746.36,6463.46C8752.71,6476.57 8751.35,6498.59 8739.67,6523.03C8730.07,6543.12 8714.42,6565.79 8697.63,6586.33C8713.36,6577.53 8729.09,6570.74 8744.18,6570.73C8763.63,6570.71 8782.55,6579.47 8801.16,6606.03C8830.84,6644.43 8823.67,6713.37 8796.04,6785.83C8784.11,6817.1 8768.33,6848.51 8749.37,6877.25C8736.52,6896.73 8721.59,6914.14 8707,6930.1C8682.82,6956.53 8658.31,6978.82 8635.15,6991.22C8595.25,7012.56 8559.57,7012.24 8537.3,6994.89C8518.15,6979.97 8498.99,6952.55 8504.46,6900.6C8504.46,6881.39 8518.92,6865.8 8536.73,6865.8C8554.54,6865.8 8569,6881.39 8569,6900.6C8569.78,6908.18 8574.7,6914.14 8577.18,6918.65C8581.01,6915.86 8586.82,6909.42 8591.49,6906.37C8616.52,6890.01 8645.73,6862.01 8673.83,6829.47C8685.1,6816.43 8696.87,6803.67 8707.5,6789.82C8732.55,6757.16 8753.73,6723.07 8765.57,6691.09C8774.93,6665.82 8781.67,6643.74 8773.76,6625.14C8761.03,6600.58 8745.58,6594.26 8728.55,6598.46C8697.21,6606.18 8664.58,6637.14 8635.5,6646.47C8626.12,6651.71 8618.45,6652.14 8614.08,6649.96C8601.1,6643.47 8605.16,6635.04 8610.68,6629.38C8612.12,6627.9 8620.75,6625.11 8624.47,6624.37L8626.32,6623.92C8628.27,6622.72 8630.4,6621.25 8632.19,6619.71C8648.84,6605.42 8671.09,6576.87 8688.76,6547.93C8699.53,6530.3 8708.06,6512.3 8712.61,6497.41C8714.58,6490.96 8716.54,6485.68 8714.86,6481.97C8713.95,6479.94 8711.57,6483.31 8707.75,6483.76C8686.45,6486.09 8665.12,6498.24 8644.34,6512.72C8610.93,6536.01 8579.48,6567.06 8559.72,6592.44L8526.74,6635.52ZM8573.95,6919.89C8573.36,6918.23 8573.02,6917.13 8573.13,6918.34C8573.21,6919.25 8573.49,6919.75 8573.95,6919.89ZM8516.99,6635.52C8515.04,6636.23 8513.48,6637.72 8512.26,6639.65L8513.33,6638.23C8513.93,6637.69 8514.52,6637.16 8515.12,6636.62L8516.99,6635.52Z"/>
                </g>
                <g transform="matrix(1.20282,0,0,0.959164,-9170.65,-4722.55)">
                    <path d="M9634.23,5996.97C9650.99,5993.23 9672.28,5987.78 9695.65,5975.74C9735.64,5955.15 9787.42,5928.44 9844.64,5881.31C9856.38,5871.1 9874.2,5872.34 9884.41,5884.08C9894.62,5895.83 9893.38,5913.65 9881.64,5923.86C9818.52,5981.71 9763.53,6020.51 9716.61,6039.1C9698.02,6046.47 9680.81,6050.04 9665.53,6052.41C9657.41,6053.66 9649.81,6054.47 9642.72,6054.84C9641.8,6062.9 9640.19,6070.79 9637.95,6077.88C9627.02,6119.03 9584,6195.84 9539.29,6235.02C9505.18,6264.91 9468.63,6271 9436.44,6250.97C9419.86,6239.27 9409.75,6221.9 9407.3,6200.36C9404.33,6174.22 9413.84,6140.19 9431.46,6107.38C9457.51,6058.86 9498.84,6010.7 9531.35,5996.17C9550.07,5987.81 9566.22,5987.2 9577.42,5995.1C9580.33,5992.64 9583.83,5990.27 9587.98,5988.07C9609.98,5976.24 9624.75,5982.52 9634.23,5996.97ZM9565.57,6028.11C9564.27,6026.42 9562.58,6024.28 9562.16,6023.97C9560.06,6022.44 9559.29,6027.09 9556.49,6028.57C9545.61,6034.31 9533.59,6047.19 9521.37,6063.34C9511.41,6076.52 9502.07,6091.96 9493.83,6108.02C9481.72,6131.61 9473.55,6156.76 9471.17,6177.94C9470.14,6187.09 9468.01,6195.51 9473.98,6199.88C9480.99,6205.92 9489.74,6203.77 9498.9,6198.91C9513.1,6191.38 9528.02,6179.73 9541.41,6165.24C9570.63,6133.6 9594.52,6092.31 9603.43,6067.02C9604.76,6062.79 9605.82,6058.14 9606.52,6053.35C9589.72,6050.62 9578.64,6045.17 9573.28,6039.67L9573.27,6039.65C9570.67,6038.15 9568.63,6035.7 9567.63,6032.63L9567.52,6032.13C9566.75,6030.81 9566.1,6029.47 9565.57,6028.11Z"/>
                </g>
            </g>
            <g id="swoosh">
                <g transform="matrix(1.20282,0,0,0.959164,-9216.36,-4729.53)">
                    <path d="M9078.97,6371.13C9120.96,6338.86 9168.7,6292.56 9187.62,6270.72C9195.43,6261.8 9209,6260.89 9217.92,6268.7C9226.84,6276.5 9227.75,6290.08 9219.94,6298.99C9197.25,6324.66 9136.44,6381.16 9087.89,6415.23C9090.38,6467.39 9072.02,6534.65 9042.31,6586.47C9006.42,6649.06 8952.02,6684.13 8903.86,6669.22C8842.23,6645.51 8829.01,6588.19 8851.58,6525.64C8876.66,6456.16 8943.88,6383.83 8986.51,6373.54C8993.34,6371.4 9000.63,6375.2 9002.77,6382.03C9003.18,6383.35 9003.38,6384.68 9003.31,6386C9010.48,6375.53 9020.24,6365.34 9029.55,6359.42C9051.11,6345.72 9070.11,6349.14 9078.97,6371.13ZM8996.71,6397.24C8995.95,6397.66 8995.14,6398.01 8994.28,6398.28C8984.35,6402.7 8974.75,6413.19 8963.76,6425.62C8943.59,6448.43 8922.92,6480.39 8909.79,6513.38C8893.34,6554.71 8883.65,6598.88 8923.76,6610.69C8935.06,6614.73 8946.2,6608.96 8957.34,6600.45C8977.52,6585.04 8996.86,6560.17 9011.76,6531.5C9027.05,6502.08 9038.67,6469.25 9042.91,6439.75C9021.2,6446.49 9004.32,6442.82 8997.33,6433.52C8992.24,6426.8 8989.98,6416.57 8993.78,6404.44C8994.5,6402.14 8995.48,6399.72 8996.71,6397.24Z" />
                </g>
                <g transform="matrix(1.20282,0,0,0.959164,-9159.95,-4762.35)">
                    <path d="M9337.81,6234.94C9351.59,6225.22 9364.88,6215.23 9377.79,6204.66C9399.73,6186.71 9420.59,6167.74 9441.96,6148.46C9449.27,6141.14 9461.15,6141.14 9468.46,6148.46C9475.77,6155.77 9475.77,6167.65 9468.46,6174.96C9468.46,6174.96 9366.82,6280.2 9366.82,6280.2C9358.17,6287.07 9352.49,6292.97 9345.52,6298.02C9343.78,6299.29 9341.98,6300.52 9340.06,6301.68C9335.35,6330.95 9324.67,6363.29 9309.19,6393.58C9270.93,6468.45 9205.59,6522.4 9154.44,6502.61C9125.1,6489.22 9109.75,6462.12 9108.49,6427.64C9106.49,6372.86 9140.13,6299.71 9158.71,6274.94C9165.45,6266.28 9180.56,6252.14 9196.04,6241.51C9208.08,6233.24 9220.09,6226.85 9228.91,6225.86C9235.97,6224.68 9242.65,6229.46 9243.83,6236.52C9245.01,6243.58 9240.23,6250.26 9233.17,6251.44C9226.28,6252.98 9217.46,6260.87 9209.01,6269.13C9199.86,6278.06 9192.07,6288.36 9188.46,6294.77C9178.76,6311.2 9165.43,6350.17 9160.58,6387.68C9157,6415.28 9154.48,6443.57 9176.16,6451.93C9208.55,6467.21 9244,6420.68 9271.33,6373.08C9282.17,6354.21 9291.11,6334.14 9297.16,6315.04C9254.74,6318.3 9242.11,6289.14 9244.9,6259.15C9248.45,6220.94 9282.97,6183.32 9319.76,6209.66C9328.12,6215.09 9334.08,6223.81 9337.81,6234.94ZM9305.69,6259.07C9305.17,6251.55 9303.25,6245.47 9298.18,6242.03C9293.56,6238.93 9290.6,6244.22 9288.84,6248.66C9287.34,6252.46 9287.85,6256.82 9288.24,6260.85C9288.46,6263.09 9290.45,6267.03 9292,6265.77C9292.76,6265.15 9293.37,6261.52 9293.55,6262.98C9293.94,6266.16 9300.35,6261.59 9304.53,6259.95L9305.69,6259.07Z" />
                </g>
                <g transform="matrix(1.04853,-0.00226041,0.00280274,0.826727,-7841.28,-3850.8)">
                    <path d="M8901.06,6962.25C8901,6969.15 8896.19,6975.32 8889.24,6976.78C8874.65,6981.81 8870.54,6971.34 8868.3,6963.47C8866.56,6957.35 8880.26,6932.28 8887.64,6922.81L9006.31,6799.82L9274.54,6548.01C9409.97,6428.24 9556.17,6315.93 9710.95,6217.1C9865.53,6118.42 10028.5,6033.25 10194.2,5962.09C10203.8,5957.87 10214.9,5962.26 10219.1,5971.9C10223.2,5981.53 10218.9,5992.79 10209.4,5997.01C10047.3,6071.11 9889.57,6160.74 9738.03,6259.95C9586.48,6359.17 9441.1,6468.06 9307.49,6586.13L9036.95,6832.04C9036.95,6832.04 8914.45,6950.22 8914.45,6950.22C8911.53,6952.49 8904.81,6958.72 8901.06,6962.25Z" />
                </g>
                <g transform="matrix(1.29688,0,0,0.959164,-10023.3,-4722.31)">
                    <path d="M8526.74,6635.52C8532.65,6638.3 8535.46,6645.66 8533.05,6652.16C8530.61,6659.93 8518.53,6665.49 8507.69,6655.43C8501,6649.21 8496.29,6637.12 8502.14,6623.77C8502.14,6623.77 8534.51,6571.12 8534.51,6571.12C8554.55,6541.61 8585.91,6503.11 8622.39,6476.76C8648.59,6457.85 8677.41,6445.74 8704.62,6443.77C8728.06,6442.25 8740.52,6451.39 8746.36,6463.46C8752.71,6476.57 8751.35,6498.59 8739.67,6523.03C8730.07,6543.12 8714.42,6565.79 8697.63,6586.33C8713.36,6577.53 8729.09,6570.74 8744.18,6570.73C8763.63,6570.71 8782.55,6579.47 8801.16,6606.03C8830.84,6644.43 8823.67,6713.37 8796.04,6785.83C8784.11,6817.1 8768.33,6848.51 8749.37,6877.25C8736.52,6896.73 8721.59,6914.14 8707,6930.1C8682.82,6956.53 8658.31,6978.82 8635.15,6991.22C8595.25,7012.56 8559.57,7012.24 8537.3,6994.89C8518.15,6979.97 8498.99,6952.55 8504.46,6900.6C8504.46,6881.39 8518.92,6865.8 8536.73,6865.8C8554.54,6865.8 8569,6881.39 8569,6900.6C8569.78,6908.18 8574.7,6914.14 8577.18,6918.65C8581.01,6915.86 8586.82,6909.42 8591.49,6906.37C8616.52,6890.01 8645.73,6862.01 8673.83,6829.47C8685.1,6816.43 8696.87,6803.67 8707.5,6789.82C8732.55,6757.16 8753.73,6723.07 8765.57,6691.09C8774.93,6665.82 8781.67,6643.74 8773.76,6625.14C8761.03,6600.58 8745.58,6594.26 8728.55,6598.46C8697.21,6606.18 8664.58,6637.14 8635.5,6646.47C8626.12,6651.71 8618.45,6652.14 8614.08,6649.96C8601.1,6643.47 8605.16,6635.04 8610.68,6629.38C8612.12,6627.9 8620.75,6625.11 8624.47,6624.37L8626.32,6623.92C8628.27,6622.72 8630.4,6621.25 8632.19,6619.71C8648.84,6605.42 8671.09,6576.87 8688.76,6547.93C8699.53,6530.3 8708.06,6512.3 8712.61,6497.41C8714.58,6490.96 8716.54,6485.68 8714.86,6481.97C8713.95,6479.94 8711.57,6483.31 8707.75,6483.76C8686.45,6486.09 8665.12,6498.24 8644.34,6512.72C8610.93,6536.01 8579.48,6567.06 8559.72,6592.44L8526.74,6635.52ZM8573.95,6919.89C8573.36,6918.23 8573.02,6917.13 8573.13,6918.34C8573.21,6919.25 8573.49,6919.75 8573.95,6919.89ZM8516.99,6635.52C8515.04,6636.23 8513.48,6637.72 8512.26,6639.65L8513.33,6638.23C8513.93,6637.69 8514.52,6637.16 8515.12,6636.62L8516.99,6635.52Z" />
                </g>
                <g transform="matrix(1.20282,0,0,0.959164,-9170.65,-4722.55)">
                    <path d="M9634.23,5996.97C9650.99,5993.23 9672.28,5987.78 9695.65,5975.74C9735.64,5955.15 9787.42,5928.44 9844.64,5881.31C9856.38,5871.1 9874.2,5872.34 9884.41,5884.08C9894.62,5895.83 9893.38,5913.65 9881.64,5923.86C9818.52,5981.71 9763.53,6020.51 9716.61,6039.1C9698.02,6046.47 9680.81,6050.04 9665.53,6052.41C9657.41,6053.66 9649.81,6054.47 9642.72,6054.84C9641.8,6062.9 9640.19,6070.79 9637.95,6077.88C9627.02,6119.03 9584,6195.84 9539.29,6235.02C9505.18,6264.91 9468.63,6271 9436.44,6250.97C9419.86,6239.27 9409.75,6221.9 9407.3,6200.36C9404.33,6174.22 9413.84,6140.19 9431.46,6107.38C9457.51,6058.86 9498.84,6010.7 9531.35,5996.17C9550.07,5987.81 9566.22,5987.2 9577.42,5995.1C9580.33,5992.64 9583.83,5990.27 9587.98,5988.07C9609.98,5976.24 9624.75,5982.52 9634.23,5996.97ZM9565.57,6028.11C9564.27,6026.42 9562.58,6024.28 9562.16,6023.97C9560.06,6022.44 9559.29,6027.09 9556.49,6028.57C9545.61,6034.31 9533.59,6047.19 9521.37,6063.34C9511.41,6076.52 9502.07,6091.96 9493.83,6108.02C9481.72,6131.61 9473.55,6156.76 9471.17,6177.94C9470.14,6187.09 9468.01,6195.51 9473.98,6199.88C9480.99,6205.92 9489.74,6203.77 9498.9,6198.91C9513.1,6191.38 9528.02,6179.73 9541.41,6165.24C9570.63,6133.6 9594.52,6092.31 9603.43,6067.02C9604.76,6062.79 9605.82,6058.14 9606.52,6053.35C9589.72,6050.62 9578.64,6045.17 9573.28,6039.67L9573.27,6039.65C9570.67,6038.15 9568.63,6035.7 9567.63,6032.63L9567.52,6032.13C9566.75,6030.81 9566.1,6029.47 9565.57,6028.11Z" />
                </g>
            </g>
        </g>
    </g>
</svg>
