<?xml version="1.0" encoding="UTF-8" standalone="no"?><!DOCTYPE svg PUBLIC "-//W3C//DTD SVG 1.1//EN"
        "http://www.w3.org/Graphics/SVG/1.1/DTD/svg11.dtd">
<svg width="100%" height="100%" viewBox="0 0 201 201" version="1.1" xmlns="http://www.w3.org/2000/svg"
     xml:space="preserve">
    <path class="fillAccent" d="M154.836,96.165c0,-2.162 -1.756,-3.918 -3.918,-3.918l-100.854,0c-2.162,0 -3.918,1.756 -3.918,3.918l0,7.836c0,2.162 1.756,3.918 3.918,3.918l100.854,0c2.162,0 3.918,-1.756 3.918,-3.918l0,-7.836Z"/>
    <path class="fillAccent" d="M154.836,61.185c0,-2.162 -1.756,-3.917 -3.918,-3.917l-100.854,0c-2.162,0 -3.918,1.755 -3.918,3.917l0,7.836c0,2.163 1.756,3.918 3.918,3.918l100.854,0c2.162,0 3.918,-1.755 3.918,-3.918l0,-7.836Z"/>
    <path class="fillAccent" d="M154.836,131.145c0,-2.163 -1.756,-3.918 -3.918,-3.918l-100.854,0c-2.162,0 -3.918,1.755 -3.918,3.918l0,7.835c0,2.163 1.756,3.918 3.918,3.918l100.854,0c2.162,0 3.918,-1.755 3.918,-3.918l0,-7.835Z"/></svg>