<?xml version="1.0" encoding="iso-8859-1"?>
<!DOCTYPE svg PUBLIC "-//W3C//DTD SVG 1.1//EN" "http://www.w3.org/Graphics/SVG/1.1/DTD/svg11.dtd">
<svg height="100%" width="100%" viewBox="110 60 20 50"
 xmlns="http://www.w3.org/2000/svg" xmlns:xlink="http://www.w3.org/1999/xlink">
<path d="m 121.091 72.185l 0 -3.75l 0.21 0l 0.21 0l 0 0.18c 0 0.3 0.06 0.84 0.12 1.23c 0.24 1.53 0.9 3.12 2.13 5.16l 0.99 1.59c 0.87 1.44 1.38 2.34 1.77 3.09c 0.81 1.68 1.2 3.06 1.26 4.53c 0.03 1.53 -0.21 3.27 -0.75 5.01c -0.21 0.69 -0.51 1.5 -0.6 1.59c -0.09 0.12 -0.27 0.21 -0.42 0.21c -0.15 0 -0.42 -0.12 -0.51 -0.21c -0.15 -0.18 -0.18 -0.42 -0.09 -0.66c 0.15 -0.33 0.45 -1.2 0.57 -1.62c 0.42 -1.38 0.6 -2.58 0.6 -3.9c 0 -0.66 0 -0.81 -0.06 -1.11c -0.39 -2.07 -1.8 -4.26 -4.59 -7.14l -0.42 -0.45l -0.21 0l -0.21 0l 0 -3.75zm -2.6999999999999886 23.200000000000003c 0.36 -0.03 1.2 0 1.53 0.06c 1.17 0.24 1.89 0.84 2.16 1.83c 0.06 0.18 0.06 0.3 0.06 0.66c 0 0.45 0 0.63 -0.15 1.08c -0.66 2.04 -3.06 3.93 -5.52 4.38c -0.54 0.09 -1.44 0.09 -1.83 0.03c -1.23 -0.27 -1.98 -0.87 -2.25 -1.86c -0.06 -0.18 -0.06 -0.3 -0.06 -0.66c 0 -0.45 0 -0.63 0.15 -1.08c 0.24 -0.78 0.75 -1.53 1.44 -2.22c 1.2 -1.2 2.85 -2.01 4.47 -2.22zm 3.719999999999999 -26.950000000000003L 122.111 98.14333333333333L 121.111 98.14333333333333L 121.111 68.435z" stroke="none" fill="#000000" class="abcjs-note abcjs-d0-125 abcjs-p-2 abcjs-l0 abcjs-m0 abcjs-v0 abcjs-n2"></path>
</svg>