<?xml version="1.0" encoding="UTF-8" standalone="no"?><!DOCTYPE svg PUBLIC "-//W3C//DTD SVG 1.1//EN"
        "http://www.w3.org/Graphics/SVG/1.1/DTD/svg11.dtd">
<svg width="100%" height="100%" viewBox="0 0 201 201" version="1.1" xmlns="http://www.w3.org/2000/svg"
     xmlns:xlink="http://www.w3.org/1999/xlink" xml:space="preserve"
     style="fill-rule:nonzero;">
    <path class="fillAccent" d="M83.01,163.002l0,-29.835l-18.01,3.638l0,-16.918l18.01,-3.639l0,-28.38l-18.01,3.639l0,-16.919l18.01,-4.002l0,-28.38l7.459,-1.273l0,28.197l20.011,-4.548l0,-31.836l7.641,-1.273l0,31.472l18.01,-3.82l0,17.282l-18.01,3.639l0,28.198l18.01,-3.457l0,16.919l-18.01,3.82l0,26.743l-7.641,1.455l0,-26.56l-20.011,4.73l0,30.017l-7.459,1.091Zm7.459,-48.573l20.011,-4.548l0,-28.38l-20.011,4.912l0,28.016Z"
          /></svg>