<?xml version="1.0" encoding="UTF-8" standalone="no"?>
<!DOCTYPE svg PUBLIC "-//W3C//DTD SVG 1.1//EN" "http://www.w3.org/Graphics/SVG/1.1/DTD/svg11.dtd">
<svg width="100%" height="100%" viewBox="0 0 201 201" version="1.1" xmlns="http://www.w3.org/2000/svg" xml:space="preserve">
    <g class="fillAccent" id="fields">
        <path id="m0" d="M89.186,52.002C89.774,54.195 91.761,55.72 94.031,55.72C97.769,55.72 103.414,55.72 107.152,55.72C109.422,55.72 111.409,54.195 111.997,52.002C112.277,50.959 112.589,49.794 112.897,48.645C113.3,47.138 112.98,45.53 112.031,44.293C111.082,43.056 109.611,42.33 108.052,42.33C103.561,42.33 97.622,42.33 93.131,42.33C91.572,42.33 90.101,43.056 89.152,44.293C88.203,45.53 87.883,47.138 88.286,48.645C88.594,49.794 88.907,50.959 89.186,52.002Z"/>
        <path id="m8" d="M64.157,134.547C65.762,132.942 66.089,130.458 64.954,128.492C63.084,125.255 60.262,120.367 58.393,117.129C57.258,115.163 54.944,114.205 52.751,114.792C51.708,115.072 50.543,115.384 49.394,115.692C47.887,116.096 46.655,117.177 46.058,118.617C45.461,120.058 45.568,121.694 46.348,123.045C48.593,126.934 51.563,132.077 53.808,135.966C54.588,137.317 55.951,138.228 57.497,138.431C59.043,138.635 60.596,138.108 61.699,137.005C62.54,136.163 63.393,135.311 64.157,134.547Z"/>
        <path id="m4" d="M148.157,114.951C145.965,114.363 143.65,115.322 142.515,117.288C140.646,120.525 137.824,125.413 135.955,128.651C134.82,130.617 135.147,133.1 136.752,134.706C137.516,135.469 138.368,136.322 139.21,137.163C140.312,138.266 141.865,138.793 143.411,138.59C144.957,138.386 146.321,137.475 147.1,136.125C149.346,132.235 152.315,127.093 154.561,123.203C155.34,121.853 155.447,120.217 154.851,118.776C154.254,117.335 153.021,116.254 151.515,115.85C150.365,115.542 149.201,115.23 148.157,114.951Z"/>
        <path id="m10" d="M52.843,86.049C55.035,86.637 57.35,85.678 58.485,83.712C60.354,80.475 63.176,75.587 65.045,72.349C66.18,70.383 65.853,67.9 64.248,66.294C63.484,65.531 62.632,64.678 61.79,63.837C60.688,62.734 59.135,62.207 57.589,62.41C56.043,62.614 54.679,63.525 53.9,64.875C51.654,68.765 48.685,73.907 46.439,77.797C45.66,79.147 45.553,80.783 46.149,82.224C46.746,83.665 47.979,84.746 49.485,85.15C50.635,85.458 51.799,85.77 52.843,86.049Z"/>
        <path id="m6" d="M111.814,148.998C111.226,146.805 109.239,145.28 106.969,145.28C103.231,145.28 97.586,145.28 93.848,145.28C91.578,145.28 89.591,146.805 89.003,148.998C88.723,150.041 88.411,151.206 88.103,152.355C87.7,153.862 88.02,155.47 88.969,156.707C89.918,157.944 91.389,158.67 92.948,158.67C97.439,158.67 103.378,158.67 107.869,158.67C109.428,158.67 110.899,157.944 111.848,156.707C112.797,155.47 113.117,153.862 112.714,152.355C112.406,151.206 112.093,150.041 111.814,148.998Z"/>
        <path id="m2" d="M136.843,66.453C135.238,68.058 134.911,70.542 136.046,72.508C137.916,75.745 140.738,80.633 142.607,83.871C143.742,85.837 146.056,86.795 148.249,86.208C149.292,85.928 150.457,85.616 151.606,85.308C153.113,84.904 154.345,83.823 154.942,82.383C155.539,80.942 155.432,79.306 154.652,77.955C153.231,75.494 149.389,68.839 147.192,65.034C146.412,63.683 145.049,62.772 143.503,62.569C141.957,62.365 140.404,62.892 139.301,63.995C138.46,64.837 137.607,65.689 136.843,66.453Z"/>
        <path id="m11" d="M66.453,64.157C68.058,65.762 70.542,66.089 72.508,64.954C75.745,63.084 80.633,60.262 83.871,58.393C85.837,57.258 86.795,54.944 86.208,52.751C85.928,51.708 85.616,50.543 85.308,49.394C84.904,47.887 83.823,46.655 82.383,46.058C80.942,45.461 79.306,45.568 77.955,46.348C74.066,48.593 68.923,51.563 65.034,53.808C63.683,54.588 62.772,55.951 62.569,57.497C62.365,59.043 62.892,60.596 63.995,61.699C64.837,62.54 65.689,63.393 66.453,64.157Z"/>
        <path id="m7" d="M86.049,148.157C86.637,145.965 85.678,143.65 83.712,142.515C80.475,140.646 75.587,137.824 72.349,135.955C70.383,134.82 67.9,135.147 66.294,136.752C65.531,137.516 64.678,138.368 63.837,139.21C62.734,140.312 62.207,141.865 62.41,143.411C62.614,144.957 63.525,146.321 64.875,147.1C68.765,149.346 73.907,152.315 77.797,154.561C79.147,155.34 80.783,155.447 82.224,154.851C83.665,154.254 84.746,153.021 85.15,151.515C85.458,150.365 85.77,149.201 86.049,148.157Z"/>
        <path id="m3" d="M148.998,89.186C146.805,89.774 145.28,91.761 145.28,94.031C145.28,97.769 145.28,103.414 145.28,107.152C145.28,109.422 146.805,111.409 148.998,111.997C150.041,112.277 151.206,112.589 152.355,112.897C153.862,113.3 155.47,112.98 156.707,112.031C157.944,111.082 158.67,109.611 158.67,108.052C158.67,103.561 158.67,97.622 158.67,93.131C158.67,91.572 157.944,90.101 156.707,89.152C155.47,88.203 153.862,87.883 152.355,88.286C151.206,88.594 150.041,88.907 148.998,89.186Z"/>
        <path id="m9" d="M52.002,111.814C54.195,111.226 55.72,109.239 55.72,106.969C55.72,103.231 55.72,97.586 55.72,93.848C55.72,91.578 54.195,89.591 52.002,89.003C50.959,88.723 49.794,88.411 48.645,88.103C47.138,87.7 45.53,88.02 44.293,88.969C43.056,89.918 42.33,91.389 42.33,92.948C42.33,97.439 42.33,103.378 42.33,107.869C42.33,109.428 43.056,110.899 44.293,111.848C45.53,112.797 47.138,113.117 48.645,112.714C49.794,112.406 50.959,112.093 52.002,111.814Z"/>
        <path id="m5" d="M134.547,136.843C132.942,135.238 130.458,134.911 128.492,136.046C125.255,137.916 120.367,140.738 117.129,142.607C115.163,143.742 114.205,146.056 114.792,148.249C115.072,149.292 115.384,150.457 115.692,151.606C116.096,153.113 117.177,154.345 118.617,154.942C120.058,155.539 121.694,155.432 123.045,154.652C126.934,152.407 132.077,149.437 135.966,147.192C137.317,146.412 138.228,145.049 138.431,143.503C138.635,141.957 138.108,140.404 137.005,139.301C136.163,138.46 135.311,137.607 134.547,136.843Z"/>
        <path id="m1" d="M114.951,52.722C114.363,54.915 115.322,57.229 117.288,58.364C120.525,60.233 125.413,63.055 128.651,64.924C130.617,66.06 133.1,65.733 134.706,64.127C135.469,63.364 136.322,62.511 137.163,61.669C138.266,60.567 138.793,59.014 138.59,57.468C138.386,55.922 137.475,54.558 136.125,53.779C132.235,51.533 127.093,48.564 123.203,46.319C121.853,45.539 120.217,45.432 118.776,46.029C117.335,46.625 116.254,47.858 115.85,49.364C115.542,50.514 115.23,51.679 114.951,52.722Z"/>
        <path id="M0" d="M93.219,67.394C93.806,69.587 95.794,71.112 98.064,71.112C99.61,71.112 101.39,71.112 102.936,71.112C105.206,71.112 107.194,69.587 107.781,67.394C107.976,66.668 108.185,65.888 108.395,65.105C108.798,63.598 108.478,61.99 107.529,60.753C106.58,59.516 105.109,58.791 103.55,58.791C101.58,58.791 99.42,58.791 97.45,58.791C95.891,58.791 94.42,59.516 93.471,60.753C92.522,61.99 92.202,63.598 92.605,65.105C92.815,65.888 93.024,66.668 93.219,67.394Z"/>
        <path id="M8" d="M75.47,123.359C77.075,121.753 77.402,119.27 76.267,117.304C75.494,115.965 74.604,114.424 73.831,113.084C72.696,111.118 70.382,110.16 68.189,110.747C67.463,110.942 66.683,111.151 65.899,111.361C64.393,111.764 63.16,112.846 62.564,114.286C61.967,115.727 62.074,117.363 62.854,118.714C63.838,120.419 64.919,122.29 65.903,123.996C66.683,125.346 68.047,126.257 69.593,126.461C71.139,126.664 72.691,126.137 73.794,125.035C74.368,124.461 74.939,123.89 75.47,123.359Z"/>
        <path id="M4" d="M132.811,110.747C130.618,110.16 128.304,111.118 127.169,113.084C126.396,114.424 125.506,115.965 124.733,117.304C123.598,119.27 123.925,121.753 125.53,123.359C126.061,123.89 126.632,124.461 127.206,125.035C128.309,126.137 129.861,126.664 131.407,126.461C132.953,126.257 134.317,125.346 135.097,123.996C136.081,122.29 137.162,120.419 138.146,118.714C138.926,117.363 139.033,115.727 138.436,114.286C137.84,112.846 136.607,111.764 135.101,111.361C134.317,111.151 133.537,110.942 132.811,110.747Z"/>
        <path id="M10" d="M68.189,90.253C70.382,90.84 72.696,89.882 73.831,87.916C74.604,86.576 75.494,85.035 76.267,83.696C77.402,81.73 77.075,79.247 75.47,77.641C74.939,77.11 74.368,76.539 73.794,75.965C72.691,74.863 71.139,74.336 69.593,74.539C68.047,74.743 66.683,75.654 65.903,77.004C64.919,78.71 63.838,80.581 62.854,82.286C62.074,83.637 61.967,85.273 62.564,86.714C63.16,88.154 64.393,89.236 65.899,89.639C66.683,89.849 67.463,90.058 68.189,90.253Z"/>
        <path id="M6" d="M107.781,133.606C107.194,131.413 105.206,129.888 102.936,129.888C101.39,129.888 99.61,129.888 98.064,129.888C95.794,129.888 93.806,131.413 93.219,133.606C93.024,134.332 92.815,135.112 92.605,135.895C92.202,137.402 92.522,139.01 93.471,140.247C94.42,141.484 95.891,142.209 97.45,142.209C99.42,142.209 101.58,142.209 103.55,142.209C105.109,142.209 106.58,141.484 107.529,140.247C108.478,139.01 108.798,137.402 108.395,135.895C108.185,135.112 107.976,134.332 107.781,133.606Z"/>
        <path id="M2" d="M125.53,77.641C123.925,79.247 123.598,81.73 124.733,83.696C125.506,85.035 126.396,86.576 127.169,87.916C128.304,89.882 130.618,90.84 132.811,90.253C133.537,90.058 134.317,89.849 135.101,89.639C136.607,89.236 137.84,88.154 138.436,86.714C139.033,85.273 138.926,83.637 138.146,82.286C137.162,80.581 136.081,78.71 135.097,77.004C134.317,75.654 132.953,74.743 131.407,74.539C129.861,74.336 128.309,74.863 127.206,75.965C126.632,76.539 126.061,77.11 125.53,77.641Z"/>
        <path id="M11" d="M77.641,75.47C79.247,77.075 81.73,77.402 83.696,76.267C85.035,75.494 86.576,74.604 87.916,73.831C89.882,72.696 90.84,70.382 90.253,68.189C90.058,67.463 89.849,66.683 89.639,65.899C89.236,64.393 88.154,63.16 86.714,62.564C85.273,61.967 83.637,62.074 82.286,62.854C80.581,63.838 78.71,64.919 77.004,65.903C75.654,66.683 74.743,68.047 74.539,69.593C74.336,71.139 74.863,72.691 75.965,73.794C76.539,74.368 77.11,74.939 77.641,75.47Z"/>
        <path id="M7" d="M90.253,132.811C90.84,130.618 89.882,128.304 87.916,127.169C86.576,126.396 85.035,125.506 83.696,124.733C81.73,123.598 79.247,123.925 77.641,125.53C77.11,126.061 76.539,126.632 75.965,127.206C74.863,128.309 74.336,129.861 74.539,131.407C74.743,132.953 75.654,134.317 77.004,135.097C78.71,136.081 80.581,137.162 82.286,138.146C83.637,138.926 85.273,139.033 86.714,138.436C88.154,137.84 89.236,136.607 89.639,135.101C89.849,134.317 90.058,133.537 90.253,132.811Z"/>
        <path id="M3" d="M133.606,93.219C131.413,93.806 129.888,95.794 129.888,98.064C129.888,99.61 129.888,101.39 129.888,102.936C129.888,105.206 131.413,107.194 133.606,107.781C134.332,107.976 135.112,108.185 135.895,108.395C137.402,108.798 139.01,108.478 140.247,107.529C141.484,106.58 142.209,105.109 142.209,103.55C142.209,101.58 142.209,99.42 142.209,97.45C142.209,95.891 141.484,94.42 140.247,93.471C139.01,92.522 137.402,92.202 135.895,92.605C135.112,92.815 134.332,93.024 133.606,93.219Z"/>
        <path id="M9" d="M67.394,107.781C69.587,107.194 71.112,105.206 71.112,102.936C71.112,101.39 71.112,99.61 71.112,98.064C71.112,95.794 69.587,93.806 67.394,93.219C66.668,93.024 65.888,92.815 65.105,92.605C63.598,92.202 61.99,92.522 60.753,93.471C59.516,94.42 58.791,95.891 58.791,97.45C58.791,99.42 58.791,101.58 58.791,103.55C58.791,105.109 59.516,106.58 60.753,107.529C61.99,108.478 63.598,108.798 65.105,108.395C65.888,108.185 66.668,107.976 67.394,107.781Z"/>
        <path id="M5" d="M123.359,125.53C121.753,123.925 119.27,123.598 117.304,124.733C115.965,125.506 114.424,126.396 113.084,127.169C111.118,128.304 110.16,130.618 110.747,132.811C110.942,133.537 111.151,134.317 111.361,135.101C111.764,136.607 112.846,137.84 114.286,138.436C115.727,139.033 117.363,138.926 118.714,138.146C120.419,137.162 122.29,136.081 123.996,135.097C125.346,134.317 126.257,132.953 126.461,131.407C126.664,129.861 126.137,128.309 125.035,127.206C124.461,126.632 123.89,126.061 123.359,125.53Z"/>
        <path id="M1" d="M110.747,68.189C110.16,70.382 111.118,72.696 113.084,73.831C114.424,74.604 115.965,75.494 117.304,76.267C119.27,77.402 121.753,77.075 123.359,75.47C123.89,74.939 124.461,74.368 125.035,73.794C126.137,72.691 126.664,71.139 126.461,69.593C126.257,68.047 125.346,66.683 123.996,65.903C122.29,64.919 120.419,63.838 118.714,62.854C117.363,62.074 115.727,61.967 114.286,62.564C112.846,63.16 111.764,64.393 111.361,65.899C111.151,66.683 110.942,67.463 110.747,68.189Z"/>
    </g>
</svg>
