<?xml version="1.0" encoding="UTF-8" standalone="no"?>
<!DOCTYPE svg PUBLIC "-//W3C//DTD SVG 1.1//EN" "http://www.w3.org/Graphics/SVG/1.1/DTD/svg11.dtd">
<svg width="100%" height="100%" viewBox="0 0 201 201" version="1.1" xmlns="http://www.w3.org/2000/svg" xmlns:xlink="http://www.w3.org/1999/xlink" xml:space="preserve" xmlns:serif="http://www.serif.com/" style="fill-rule:evenodd;clip-rule:evenodd;stroke-linejoin:round;stroke-miterlimit:2;">
    <g id="fields" class="fillAccent">
        <path id="m0" d="M88.286,48.645C87.883,47.138 88.203,45.53 89.152,44.293C90.101,43.056 91.572,42.33 93.131,42.33L108.052,42.33C109.611,42.33 111.082,43.056 112.031,44.293C112.98,45.53 113.3,47.138 112.897,48.645C112.744,49.215 112.591,49.788 112.44,50.349C112.287,50.919 112.138,51.476 111.997,52.002C111.969,52.105 111.939,52.207 111.905,52.307L106.932,71.318C106.897,71.447 106.863,71.575 106.829,71.701C106.319,73.608 104.59,74.935 102.615,74.935L98.378,74.935C96.403,74.935 94.674,73.608 94.163,71.701C93.994,71.069 93.812,70.391 93.629,69.71C93.602,69.609 93.579,69.507 93.559,69.405L88.286,48.645Z"/>
        <path id="m6" d="M112.44,151.335C112.531,151.674 112.623,152.015 112.714,152.355C113.117,153.862 112.797,155.47 111.848,156.707C110.899,157.944 109.428,158.67 107.869,158.67L92.948,158.67C91.389,158.67 89.918,157.944 88.969,156.707C88.02,155.47 87.7,153.862 88.103,152.355C88.264,151.754 88.426,151.148 88.585,150.558C88.729,150.02 88.87,149.495 89.003,148.998C89.03,148.895 89.061,148.794 89.095,148.695L93.931,130.158C94.01,129.862 94.088,129.573 94.163,129.292C94.674,127.385 96.403,126.058 98.378,126.058L102.615,126.058C104.59,126.058 106.319,127.385 106.829,129.292C106.896,129.541 106.965,129.797 107.035,130.057C107.142,130.458 107.253,130.87 107.363,131.283C107.386,131.368 107.406,131.453 107.424,131.539L112.44,151.335Z"/>
        <path id="m01" d="M63.995,61.699C62.892,60.596 62.365,59.043 62.569,57.497C62.772,55.952 63.683,54.587 65.033,53.808L77.955,46.347C79.305,45.568 80.942,45.461 82.383,46.058C83.823,46.655 84.904,47.887 85.309,49.394C85.461,49.963 85.615,50.537 85.765,51.098C85.918,51.668 86.067,52.225 86.208,52.751C86.235,52.854 86.26,52.958 86.28,53.061L91.481,72.01C91.515,72.139 91.549,72.266 91.583,72.392C92.095,74.299 91.26,76.313 89.55,77.3L85.881,79.419C84.171,80.406 82.01,80.122 80.614,78.725C80.151,78.263 79.655,77.766 79.156,77.268C79.082,77.194 79.011,77.118 78.943,77.039L63.995,61.699Z"/>
        <path id="m61" d="M136.258,138.554C136.506,138.802 136.756,139.052 137.005,139.301C138.108,140.404 138.635,141.957 138.431,143.503C138.228,145.048 137.317,146.413 135.967,147.192L123.045,154.653C121.695,155.432 120.058,155.539 118.617,154.942C117.177,154.345 116.096,153.113 115.691,151.606C115.53,151.005 115.368,150.399 115.21,149.809C115.066,149.271 114.925,148.746 114.792,148.249C114.765,148.146 114.741,148.044 114.72,147.941L109.641,129.466C109.562,129.171 109.485,128.881 109.41,128.601C108.898,126.693 109.732,124.68 111.442,123.693L115.112,121.574C116.822,120.587 118.983,120.871 120.379,122.268C120.561,122.45 120.748,122.637 120.939,122.828C121.233,123.121 121.534,123.423 121.837,123.725C121.899,123.787 121.959,123.851 122.017,123.916L136.258,138.554Z"/>
        <path id="m02" d="M49.485,85.15C47.979,84.746 46.746,83.665 46.149,82.224C45.553,80.784 45.659,79.147 46.439,77.797L53.899,64.875C54.679,63.525 56.043,62.614 57.589,62.41C59.135,62.207 60.687,62.734 61.791,63.836C62.208,64.253 62.628,64.673 63.038,65.084C63.456,65.501 63.863,65.909 64.248,66.294C64.324,66.37 64.396,66.447 64.466,66.527L78.445,80.334C78.54,80.428 78.633,80.522 78.725,80.614C80.122,82.01 80.406,84.171 79.419,85.881L77.3,89.55C76.313,91.26 74.299,92.095 72.392,91.583C71.76,91.414 71.082,91.232 70.401,91.05C70.3,91.023 70.2,90.992 70.102,90.958L49.485,85.15Z"/>
        <path id="m62" d="M150.494,115.577C150.833,115.667 151.175,115.759 151.515,115.85C153.021,116.254 154.254,117.335 154.851,118.776C155.447,120.216 155.341,121.853 154.561,123.203L147.101,136.125C146.321,137.475 144.957,138.386 143.411,138.59C141.865,138.793 140.313,138.266 139.209,137.164C138.769,136.723 138.326,136.28 137.894,135.848C137.5,135.454 137.116,135.07 136.752,134.706C136.677,134.631 136.605,134.554 136.535,134.475L122.901,121.013C122.685,120.797 122.473,120.584 122.268,120.379C120.871,118.983 120.587,116.822 121.574,115.112L123.693,111.442C124.68,109.732 126.693,108.898 128.601,109.41C128.849,109.476 129.106,109.545 129.366,109.614C129.767,109.722 130.179,109.832 130.592,109.943C130.677,109.965 130.761,109.991 130.843,110.018L150.494,115.577Z"/>
        <path id="m03" d="M48.645,112.714C47.138,113.117 45.53,112.797 44.293,111.848C43.056,110.899 42.33,109.428 42.33,107.869L42.33,92.948C42.33,91.389 43.056,89.918 44.293,88.969C45.53,88.02 47.138,87.7 48.645,88.103C49.215,88.256 49.788,88.409 50.349,88.56C50.919,88.713 51.476,88.862 52.002,89.003C52.105,89.031 52.207,89.061 52.307,89.095L71.318,94.061C71.447,94.095 71.575,94.13 71.701,94.163C73.608,94.674 74.935,96.403 74.935,98.378L74.935,102.615C74.935,104.59 73.608,106.319 71.701,106.829C71.069,106.999 70.391,107.181 69.71,107.363C69.609,107.39 69.507,107.414 69.405,107.433L48.645,112.714Z"/>
        <path id="m63" d="M151.335,88.56C151.674,88.469 152.015,88.377 152.355,88.286C153.862,87.883 155.47,88.203 156.707,89.152C157.944,90.101 158.67,91.572 158.67,93.131L158.67,108.052C158.67,109.611 157.944,111.082 156.707,112.031C155.47,112.98 153.862,113.3 152.355,112.897C151.754,112.736 151.148,112.574 150.558,112.415C150.02,112.271 149.495,112.13 148.998,111.997C148.895,111.97 148.794,111.939 148.695,111.905L130.158,107.062C129.862,106.982 129.573,106.905 129.292,106.829C127.385,106.319 126.058,104.59 126.058,102.615L126.058,98.378C126.058,96.403 127.385,94.674 129.292,94.163C129.541,94.097 129.797,94.028 130.057,93.958C130.458,93.85 130.87,93.74 131.283,93.629C131.368,93.607 131.453,93.587 131.539,93.569L151.335,88.56Z"/>
        <path id="m04" d="M139.301,63.995C140.404,62.892 141.957,62.365 143.503,62.569C145.048,62.772 146.413,63.683 147.192,65.033L154.653,77.955C155.432,79.305 155.539,80.942 154.942,82.383C154.345,83.823 153.113,84.904 151.606,85.309C151.037,85.461 150.463,85.615 149.902,85.765C149.332,85.918 148.775,86.067 148.249,86.208C148.146,86.235 148.042,86.26 147.939,86.28L128.983,91.481C128.854,91.515 128.726,91.549 128.601,91.583C126.693,92.095 124.68,91.26 123.693,89.55L121.574,85.881C120.587,84.171 120.871,82.01 122.268,80.614C122.73,80.151 123.226,79.655 123.725,79.156C123.799,79.082 123.875,79.011 123.953,78.943L139.301,63.995Z"/>
        <path id="m64" d="M62.446,136.258C62.198,136.506 61.948,136.756 61.699,137.005C60.596,138.108 59.043,138.635 57.497,138.431C55.952,138.228 54.587,137.317 53.808,135.967L46.347,123.045C45.568,121.695 45.461,120.058 46.058,118.617C46.655,117.177 47.887,116.096 49.394,115.691C49.995,115.53 50.601,115.368 51.191,115.21C51.729,115.066 52.254,114.925 52.751,114.792C52.854,114.765 52.956,114.741 53.059,114.72L71.526,109.641C71.822,109.562 72.111,109.485 72.392,109.41C74.299,108.898 76.313,109.732 77.3,111.442L79.419,115.112C80.406,116.822 80.122,118.983 78.725,120.379C78.543,120.561 78.356,120.748 78.165,120.939C77.871,121.233 77.57,121.534 77.268,121.837C77.206,121.899 77.142,121.959 77.077,122.017L62.446,136.258Z"/>
        <path id="m05" d="M115.85,49.485C116.254,47.979 117.335,46.746 118.776,46.149C120.216,45.553 121.853,45.659 123.203,46.439L136.125,53.899C137.475,54.679 138.386,56.043 138.59,57.589C138.793,59.135 138.266,60.687 137.164,61.791C136.747,62.208 136.327,62.628 135.916,63.038C135.499,63.456 135.091,63.863 134.706,64.248C134.63,64.324 134.553,64.396 134.473,64.466L120.659,78.445C120.564,78.54 120.471,78.633 120.379,78.725C118.983,80.122 116.822,80.406 115.112,79.419L111.442,77.3C109.732,76.313 108.898,74.299 109.41,72.392C109.578,71.76 109.76,71.082 109.943,70.401C109.97,70.3 110,70.2 110.034,70.102L115.85,49.485Z"/>
        <path id="m65" d="M85.423,150.494C85.333,150.833 85.241,151.175 85.15,151.515C84.746,153.021 83.665,154.254 82.224,154.851C80.784,155.447 79.147,155.341 77.797,154.561L64.875,147.101C63.525,146.321 62.614,144.957 62.41,143.411C62.207,141.865 62.734,140.313 63.836,139.209C64.277,138.769 64.72,138.326 65.152,137.894C65.546,137.5 65.93,137.116 66.294,136.752C66.369,136.677 66.446,136.605 66.525,136.535L79.98,122.901C80.196,122.685 80.408,122.473 80.614,122.268C82.01,120.871 84.171,120.587 85.881,121.574L89.55,123.693C91.26,124.68 92.095,126.693 91.583,128.601C91.517,128.849 91.448,129.106 91.378,129.366C91.271,129.767 91.161,130.179 91.05,130.592C91.027,130.677 91.002,130.761 90.974,130.843L85.423,150.494Z"/>
    </g>
</svg>
