<?xml version="1.0" encoding="UTF-8" standalone="no"?>
<!DOCTYPE svg PUBLIC "-//W3C//DTD SVG 1.1//EN" "http://www.w3.org/Graphics/SVG/1.1/DTD/svg11.dtd">
<svg width="100%" height="100%" viewBox="0 0 201 201" version="1.1" xmlns="http://www.w3.org/2000/svg" xml:space="preserve">
    <g>
        <path class="fillAccent" d="M99.915,156.228C99.915,156.228 150.542,156.228 163.1,152.884C170.171,150.989 175.488,145.528 177.354,138.785C180.805,126.413 180.805,100.389 180.805,100.389C180.805,100.389 180.805,74.531 177.354,62.271C175.488,55.361 170.171,50.011 163.1,48.172C150.542,44.772 99.915,44.772 99.915,44.772C99.915,44.772 49.401,44.772 36.9,48.172C29.943,50.011 24.512,55.361 22.532,62.271C19.195,74.531 19.195,100.389 19.195,100.389C19.195,100.389 19.195,126.413 22.532,138.785C24.512,145.528 29.943,150.989 36.9,152.884C49.401,156.228 99.915,156.228 99.915,156.228Z"/>
        <path class="fillBgSheet" d="M125.077,100.5L83.282,76.816L83.282,124.184L125.077,100.5Z" />
    </g>
</svg>
